<?xml version="1.0" standalone="no"?><!DOCTYPE svg PUBLIC "-//W3C//DTD SVG 1.1//EN" "http://www.w3.org/Graphics/SVG/1.1/DTD/svg11.dtd"><svg t="1697700386182" class="icon" viewBox="0 0 1251 1024" version="1.1" xmlns="http://www.w3.org/2000/svg" p-id="4153" xmlns:xlink="http://www.w3.org/1999/xlink" width="244.3359375" height="200"><path d="M1041.35700219 991.98597406H196.17269375A164.35503 164.35503 0 0 1 32 827.81328031V196.17269375A164.35503 164.35503 0 0 1 196.17269375 32h32.89064156a24.54525562 24.54525562 0 0 1 0 49.09051031h-32.89064156A115.20841594 115.20841594 0 0 0 81.09051031 196.17269375v631.64058656a115.20841594 115.20841594 0 0 0 115.08218344 115.08218344h845.1702825a115.20841594 115.20841594 0 0 0 115.0821825-115.08218344V196.17269375A115.20841594 115.20841594 0 0 0 1041.34297625 81.09051031H568.16655688a24.54525562 24.54525562 0 1 1 0-49.09051031h473.19044531a164.35503 164.35503 0 0 1 164.17269281 164.17269375v631.64058656a164.35503 164.35503 0 0 1-164.17269281 164.17269375z" p-id="4154"></path><path d="M217.96887969 736.7714225a24.55928156 24.55928156 0 0 1-22.8761775-33.45167625l155.23822031-399.33026531a24.54525562 24.54525562 0 0 1 43.63445156-4.20775875l185.08525032 293.56125375 153.79355718-172.86872625a24.54525562 24.54525562 0 0 1 33.84440063-2.72101688l256.47687937 208.98531657a24.54946312 24.54946312 0 1 1-31.01117718 38.06618437L753.8969975 470.63072562l-159.89480625 179.68529438a24.54525562 24.54525562 0 0 1-39.10409813-3.22594781L378.43874656 367.19000656l-137.5796625 353.92855594a24.55928156 24.55928156 0 0 1-22.89020437 15.65286zM919.75279438 400.02454531A123.97457813 123.97457813 0 1 1 1043.75542437 276.04996719a124.11483656 124.11483656 0 0 1-124.00263 123.97457812z m-1e-8-198.85864593A74.88406781 74.88406781 0 1 0 994.66491312 276.04996719a74.9682225 74.9682225 0 0 0-74.91211875-74.88406782z" p-id="4155"></path></svg>