<?xml version="1.0" standalone="no"?><!DOCTYPE svg PUBLIC "-//W3C//DTD SVG 1.1//EN" "http://www.w3.org/Graphics/SVG/1.1/DTD/svg11.dtd"><svg t="1697639376643" class="icon" viewBox="0 0 1024 1024" version="1.1" xmlns="http://www.w3.org/2000/svg" p-id="4935" xmlns:xlink="http://www.w3.org/1999/xlink" width="200" height="200"><path d="M145.1584 759.6032c-7.6736-4.256-15.4688-7.8336-22.464-12.5952-37.3312-25.4144-57.568-60.8128-57.888-106.0288-0.6144-86.496-0.3968-172.9984-0.096-259.4944 0.2048-58.9312 44.8-112.0192 102.6176-122.7328 8.8576-1.6384 17.9776-2.3552 26.9888-2.528 19.5136-0.3712 39.0336-0.1152 58.5536-0.1152h3.0592c1.0816-8.5632 1.4144-16.9408 3.2768-24.96 12.2176-52.6144 44.608-86.0288 96.864-99.6032 9.3696-2.432 19.392-3.2832 29.12-3.296 148.896-0.1984 297.7856-0.1472 446.6816-0.1344 62.3744 0.0064 114.9184 43.3728 126.5536 104.7232 1.4592 7.6992 2.0992 15.6736 2.1056 23.52 0.1344 106.656 0.1024 213.312 0.0832 319.9744-0.0128 61.8624-44.1408 114.7456-105.056 125.984-1.0304 0.192-2.0416 0.48-3.328 0.7936 2.3552 8.6592 4.6656 17.1648 6.976 25.6768 7.6416 28.1536 15.552 56.2368 22.848 84.4864 9.472 36.6784-11.9808 72.6336-48.4352 81.088-23.5072 5.4528-44.1728-1.3888-61.8368-17.1392-12.4864-11.1424-24.3008-23.04-36.3712-34.6432-40.832-39.2448-81.6448-78.5088-122.4704-117.76-0.7552-0.7232-1.5488-1.408-2.3296-2.1056-4.736 4.6656-9.1136 9.4848-13.9968 13.7152-24.1792 20.928-52.3648 31.5008-84.3264 31.584-51.3024 0.128-102.6048 0.0512-153.9072-0.0128-2.4192 0-4.1344 0.6976-5.8752 2.3744-35.9424 34.6368-71.9424 69.216-107.9296 103.8016-11.0848 10.656-23.872 18.0352-39.1616 20.9152-34.7136 6.5408-69.2288-17.1392-75.5712-51.8656-2.0352-11.136-1.3376-22.048 1.6384-32.9024 4.4736-16.3264 8.8832-32.672 13.312-49.0112 0.192-0.7168 0.3072-1.44 0.3648-1.7088z m81.4976-55.5712c-0.256 1.0496-0.3712 1.5616-0.5056 2.0672-8.9408 32.8768-17.8752 65.7536-26.816 98.6368-2.1504 7.9104-4.3456 15.808-6.4064 23.744-0.2624 1.0048 0.1856 2.1952 0.3008 3.296 1.0816-0.2176 2.368-0.1408 3.1936-0.7232 1.9072-1.3376 3.6672-2.9184 5.3504-4.5376 41.696-40.0448 83.3856-80.0896 125.0176-120.1984 1.76-1.696 3.4944-2.3488 5.9008-2.3296 14.72 0.096 29.44 0.0448 44.16 0.0448 45.3312 0 90.6624 0.096 135.9936-0.032 34.9696-0.096 63.6416-28.3456 63.7056-63.1104 0.16-85.9712 0.1664-171.936-0.0064-257.9072-0.0704-34.2976-28.6336-62.7712-62.9824-62.816-107.3024-0.1408-214.5984-0.1408-321.9008 0-34.3488 0.0448-62.8992 28.5056-62.9696 62.8224-0.1792 86.0736-0.1408 172.1472-0.0128 258.2272 0.0384 26.4576 17.7088 50.432 42.7072 59.1872 9.8688 3.456 20.0256 3.776 30.2912 3.648 8.1984-0.1024 16.3968-0.0192 24.9792-0.0192z m93.8304-447.9232h4.2944c62.4 0 124.7936-0.0576 187.1936 0.0832 7.3216 0.0192 14.72 0.6464 21.952 1.8176 60.6016 9.7984 106.4448 63.1552 106.6176 124.5504 0.2368 84.6912 0.096 169.3824 0.0256 254.0736-0.0064 6.912-0.5696 13.8432-1.2608 20.7232-0.2752 2.7456 0.3712 4.4736 2.3424 6.3616 43.1104 41.3376 86.1504 82.7584 129.216 124.1472 14.4576 13.8944 28.9152 27.7888 43.488 41.568 1.312 1.2416 3.456 1.6064 5.2096 2.3744-0.0576-1.8112 0.2432-3.712-0.2176-5.4144-16.4032-60.5312-32.8768-121.0432-49.3312-181.5616-0.352-1.2992-0.6016-2.6304-1.0048-4.4416h4.0832c19.3088 0 38.6176-0.2176 57.92 0.0512 37.4848 0.5248 65.6576-29.536 65.6384-64.2112-0.0704-106.6624-0.0064-213.3312-0.096-319.9936-0.0064-4.8576-0.5504-9.8304-1.664-14.56-6.9696-29.5808-32.3456-49.5296-62.9504-49.5488-69.8816-0.0512-139.744-0.0192-209.6128-0.0192-78.72 0-157.4336 0.0256-236.1536-0.0256-13.3696-0.0064-25.792 3.1616-36.864 10.7072-18.5728 12.672-27.8784 30.464-28.8256 53.3184z" p-id="4936"></path><path d="M288.3712 512.1024c-21.3312 0-42.6624 0.0832-63.9872-0.0256-17.7152-0.0896-31.8208-14.4704-31.7632-32.1344 0.0576-17.4656 14.176-31.7376 31.7696-31.808 27.0912-0.1088 54.176-0.032 81.2672-0.032 15.68 0 31.3536-0.064 47.0336 0.0192 16.416 0.0896 29.6448 12.0192 31.7632 28.4672 1.984 15.4176-8.3776 30.464-23.8848 34.4192-2.8544 0.7296-5.8944 1.024-8.8448 1.0368-21.12 0.1024-42.2336 0.064-63.3536 0.0576zM480.5568 512.1024c-17.6128-0.0256-31.9296-14.3552-31.936-31.968-0.0064-17.7472 14.432-32.1024 32.2112-32.0192 17.5744 0.0832 31.8272 14.4896 31.776 32.1344-0.0512 17.5872-14.432 31.8784-32.0512 31.8528z" p-id="4937"></path></svg>