<?xml version="1.0" standalone="no"?><!DOCTYPE svg PUBLIC "-//W3C//DTD SVG 1.1//EN" "http://www.w3.org/Graphics/SVG/1.1/DTD/svg11.dtd"><svg t="1697700197750" class="icon" viewBox="0 0 1024 1024" version="1.1" xmlns="http://www.w3.org/2000/svg" p-id="4069" xmlns:xlink="http://www.w3.org/1999/xlink" width="200" height="200"><path d="M512 64.5c-247.4 0-448 200.6-448 448s200.6 448 448 448 448-200.6 448-448-200.6-448-448-448z m0 864c-229.4 0-416-186.6-416-416s186.6-416 416-416 416 186.6 416 416-186.6 416-416 416z m-224-576c-17.7 0-32 14.3-32 32s14.3 32 32 32 32-14.3 32-32-14.3-32-32-32z m448 0c-17.7 0-32 14.3-32 32s14.3 32 32 32 32-14.3 32-32-14.3-32-32-32z m-48 192c-8.8 0-16 7.2-16 16 0 60.7-73.3 112-160 112s-160-51.3-160-112c0-8.8-7.2-16-16-16s-16 7.2-16 16c0 79.5 86 144 192 144s192-64.5 192-144c0-8.8-7.2-16-16-16z" p-id="4070"></path></svg>